<svg width="220" height="64" viewBox="0 0 220 64" fill="none" xmlns="http://www.w3.org/2000/svg">
  <path d="M12 20.5L32 8L52 20.5V24H12V20.5Z" fill="#20364D"/>
  <path d="M17 24H47V28H17V24Z" fill="#2E5670"/>
  <path d="M18 30C18 28.8954 18.8954 28 20 28H24C25.1046 28 26 28.8954 26 30V43C26 44.1046 25.1046 45 24 45H20C18.8954 45 18 44.1046 18 43V30Z" fill="#5E86A0"/>
  <path d="M29 30C29 28.8954 29.8954 28 31 28H33C34.1046 28 35 28.8954 35 30V43C35 44.1046 34.1046 45 33 45H31C29.8954 45 29 44.1046 29 43V30Z" fill="#7EA7BE"/>
  <path d="M38 30C38 28.8954 38.8954 28 40 28H44C45.1046 28 46 28.8954 46 30V43C46 44.1046 45.1046 45 44 45H40C38.8954 45 38 44.1046 38 43V30Z" fill="#5E86A0"/>
  <path d="M15 46C15 44.8954 15.8954 44 17 44H47C48.1046 44 49 44.8954 49 46V49C49 50.1046 48.1046 51 47 51H17C15.8954 51 15 50.1046 15 49V46Z" fill="#20364D"/>
  <path d="M13 52H51V56H13V52Z" fill="#2E5670"/>
  <path d="M76 24C76 21.7909 77.7909 20 80 20H97V26H82V31H93C95.2091 31 97 32.7909 97 35V40C97 42.2091 95.2091 44 93 44H76V38H91V37H80C77.7909 37 76 35.2091 76 33V24Z" fill="#20364D"/>
  <path d="M101 20H129V26H118V44H112V26H101V20Z" fill="#20364D"/>
  <path d="M148.5 20L160 44H153.4L150.9 38.5H139.1L136.6 44H130L141.5 20H148.5ZM141.8 32.8H148.2L145 25.7L141.8 32.8Z" fill="#20364D"/>
  <path d="M163 32C163 24.268 169.268 18 177 18C184.732 18 191 24.268 191 32C191 39.732 184.732 46 177 46C169.268 46 163 39.732 163 32ZM169.2 32C169.2 36.3078 172.692 39.8 177 39.8C181.308 39.8 184.8 36.3078 184.8 32C184.8 27.6922 181.308 24.2 177 24.2C172.692 24.2 169.2 27.6922 169.2 32Z" fill="#20364D"/>
</svg>
