<svg width="64" height="64" viewBox="0 0 64 64" fill="none" xmlns="http://www.w3.org/2000/svg">
  <path d="M12 20.5L32 8L52 20.5V24H12V20.5Z" fill="#20364D"/>
  <path d="M17 24H47V28H17V24Z" fill="#2E5670"/>
  <path d="M18 30C18 28.8954 18.8954 28 20 28H24C25.1046 28 26 28.8954 26 30V43C26 44.1046 25.1046 45 24 45H20C18.8954 45 18 44.1046 18 43V30Z" fill="#5E86A0"/>
  <path d="M29 30C29 28.8954 29.8954 28 31 28H33C34.1046 28 35 28.8954 35 30V43C35 44.1046 34.1046 45 33 45H31C29.8954 45 29 44.1046 29 43V30Z" fill="#7EA7BE"/>
  <path d="M38 30C38 28.8954 38.8954 28 40 28H44C45.1046 28 46 28.8954 46 30V43C46 44.1046 45.1046 45 44 45H40C38.8954 45 38 44.1046 38 43V30Z" fill="#5E86A0"/>
  <path d="M15 46C15 44.8954 15.8954 44 17 44H47C48.1046 44 49 44.8954 49 46V49C49 50.1046 48.1046 51 47 51H17C15.8954 51 15 50.1046 15 49V46Z" fill="#20364D"/>
  <path d="M13 52H51V56H13V52Z" fill="#2E5670"/>
</svg>
